<svg width="113" height="32" viewBox="0 0 113 32" fill="none" xmlns="http://www.w3.org/2000/svg">
<path d="M14.04 31.4C10.9467 31.4 8.37333 30.7867 6.32 29.56C4.26667 28.3333 2.73333 26.6267 1.72 24.44C0.706667 22.2267 0.2 19.64 0.2 16.68C0.2 13.8 0.72 11.2667 1.76 9.08C2.8 6.86667 4.34667 5.14666 6.4 3.92C8.45333 2.66667 10.9867 2.04 14 2.04C17.0667 2.04 19.3467 2.49333 20.84 3.4C22.36 4.28 23.12 5.37333 23.12 6.68C23.12 7.66667 22.6933 8.49333 21.84 9.16C20.9867 9.82667 19.7467 10.16 18.12 10.16C18.12 9.28 17.9867 8.41333 17.72 7.56C17.4533 6.70667 17 6 16.36 5.44C15.72 4.88 14.84 4.6 13.72 4.6C11.1867 4.6 9.41333 5.65333 8.4 7.76C7.41333 9.84 6.92 12.8133 6.92 16.68C6.92 20.5467 7.52 23.44 8.72 25.36C9.94667 27.2533 12.04 28.2 15 28.2C16.3067 28.2 17.4267 28.0133 18.36 27.64C19.2933 27.24 20.08 26.7467 20.72 26.16C21.3867 25.5733 21.9467 24.9867 22.4 24.4C22.8533 24.7733 23.08 25.3467 23.08 26.12C23.08 26.8667 22.8 27.6533 22.24 28.48C21.68 29.28 20.7467 29.9733 19.44 30.56C18.1333 31.12 16.3333 31.4 14.04 31.4Z" fill="#F24338"/>
<path d="M36.9188 31.4C33.7188 31.4 31.1988 30.48 29.3588 28.64C27.5188 26.7733 26.5988 23.96 26.5988 20.2C26.5988 16.44 27.4788 13.64 29.2388 11.8C30.9988 9.96 33.5988 9.04 37.0388 9.04C40.2388 9.04 42.7588 9.96 44.5988 11.8C46.4388 13.64 47.3588 16.44 47.3588 20.2C47.3588 23.96 46.4654 26.7733 44.6788 28.64C42.9188 30.48 40.3321 31.4 36.9188 31.4ZM36.9988 28.88C38.5454 28.88 39.6254 28.1467 40.2388 26.68C40.8521 25.1867 41.1588 23.0267 41.1588 20.2C41.1588 17.3467 40.8388 15.2 40.1988 13.76C39.5854 12.32 38.5054 11.6 36.9588 11.6C35.4121 11.6 34.3321 12.32 33.7188 13.76C33.1054 15.2 32.7988 17.3467 32.7988 20.2C32.7988 23.0267 33.1054 25.1867 33.7188 26.68C34.3588 28.1467 35.4521 28.88 36.9988 28.88ZM52.45 13.6C52.1833 12.8267 51.7967 12.32 51.29 12.08C50.81 11.8133 50.13 11.68 49.25 11.68V9.56H61.65V11.68H59.97C59.09 11.68 58.65 12.1067 58.65 12.96C58.65 13.28 58.69 13.6 58.77 13.92C58.85 14.24 58.93 14.5067 59.01 14.72L61.69 22.28C61.9833 23.1067 62.2633 23.9733 62.53 24.88C62.8233 25.7867 63.0233 26.5867 63.13 27.28C63.2633 26.64 63.4367 25.92 63.65 25.12C63.8633 24.2933 64.0633 23.6133 64.25 23.08L66.97 15.04C67.1033 14.6667 67.21 14.2933 67.29 13.92C67.37 13.5467 67.41 13.1867 67.41 12.84C67.41 12.3867 67.2633 12.08 66.97 11.92C66.6767 11.76 66.3033 11.68 65.85 11.68H64.69V9.56H73.49V11.68H72.69C72.1567 11.68 71.7033 11.8533 71.33 12.2C70.9567 12.52 70.5433 13.32 70.09 14.6L64.29 31H59.01L52.45 13.6ZM80.3478 5.96C79.3878 5.96 78.5745 5.73333 77.9078 5.28C77.2678 4.8 76.9478 4.06667 76.9478 3.08C76.9478 2.06666 77.2678 1.33333 77.9078 0.879999C78.5745 0.426665 79.3878 0.199998 80.3478 0.199998C81.2811 0.199998 82.0811 0.426665 82.7478 0.879999C83.4411 1.33333 83.7878 2.06666 83.7878 3.08C83.7878 4.06667 83.4411 4.8 82.7478 5.28C82.0811 5.73333 81.2811 5.96 80.3478 5.96ZM74.1878 31V28.88H74.6678C75.0678 28.88 75.4811 28.8267 75.9078 28.72C76.3611 28.5867 76.7345 28.3333 77.0278 27.96C77.3478 27.5867 77.5078 27.0267 77.5078 26.28V14.12C77.5078 13.4 77.3478 12.8667 77.0278 12.52C76.7078 12.1733 76.3211 11.9467 75.8678 11.84C75.4411 11.7333 75.0411 11.68 74.6678 11.68H74.1878V9.56H83.5878V26.28C83.5878 27.0267 83.7345 27.5867 84.0278 27.96C84.3478 28.3333 84.7345 28.5867 85.1878 28.72C85.6411 28.8267 86.0545 28.88 86.4278 28.88H86.9078V31H74.1878ZM97.5703 31.4C94.957 31.4 92.9436 30.52 91.5303 28.76C90.117 26.9733 89.4103 24.16 89.4103 20.32C89.4103 16.4533 90.1036 13.6133 91.4903 11.8C92.9036 9.98667 94.9036 9.08 97.4903 9.08C98.9836 9.08 100.21 9.38667 101.17 10C102.13 10.5867 102.89 11.3467 103.45 12.28H103.73C103.624 11.5333 103.544 10.6933 103.49 9.76C103.437 8.82667 103.41 8.04 103.41 7.4V5.2C103.41 4.10666 103.09 3.42666 102.45 3.16C101.81 2.86667 101.05 2.72 100.17 2.72H99.8503V0.599998H109.49V26.08C109.49 26.88 109.637 27.48 109.93 27.88C110.25 28.28 110.664 28.5467 111.17 28.68C111.677 28.8133 112.224 28.88 112.81 28.88H112.97V31H105.21L104.09 27.88H103.73C103.144 28.9467 102.357 29.8 101.37 30.44C100.41 31.08 99.1436 31.4 97.5703 31.4ZM99.2903 28.4C100.864 28.4 101.944 27.7333 102.53 26.4C103.117 25.04 103.41 22.9867 103.41 20.24C103.41 17.6 103.117 15.5733 102.53 14.16C101.944 12.7467 100.864 12.04 99.2903 12.04C97.957 12.04 96.997 12.7467 96.4103 14.16C95.8503 15.5733 95.5703 17.6133 95.5703 20.28C95.5703 23 95.8503 25.04 96.4103 26.4C96.997 27.7333 97.957 28.4 99.2903 28.4Z" fill="black"/>
</svg>
